<?xml version="1.0" encoding="utf-8"?>
<!DOCTYPE svg PUBLIC "-//W3C//DTD SVG 1.1//EN" "http://www.w3.org/Graphics/SVG/1.1/DTD/svg11.dtd">
<svg version="1.1" id="Layer_1" xmlns="http://www.w3.org/2000/svg" xmlns:xlink="http://www.w3.org/1999/xlink" x="0px" y="0px"
	 width="72.818px" height="72.814px" viewBox="0 0 72.818 72.814" fill="#000000" xml:space="preserve">
	<g>
		<path d="M54.038,37.175c0.01-0.217-0.105-0.418-0.295-0.521c-0.191-0.104-0.424-0.091-0.6,0.036
			c-7.969,5.7-14,6.729-17.478,6.602c-0.228-0.002-0.457,0.135-0.545,0.357c-0.088,0.221-0.029,0.475,0.147,0.631
			c2.786,2.479,6.428,4.682,10.825,6.551c0.072,0.031,0.146,0.045,0.221,0.045c0.115,0,0.232-0.035,0.33-0.105
			C51.105,47.591,53.8,42.635,54.038,37.175z"/>
		<path d="M42.015,40.491c-0.125,0.203-0.109,0.461,0.037,0.648c0.109,0.139,0.275,0.215,0.443,0.215
			c0.061,0,0.121-0.01,0.18-0.029c3.533-1.172,7.256-3.223,11.068-6.093c0.158-0.118,0.242-0.312,0.223-0.507
			c-0.521-5.45-3.465-10.265-8.076-13.2c-0.182-0.115-0.414-0.117-0.6-0.005c-0.184,0.113-0.289,0.321-0.268,0.537
			C45.966,31.741,43.909,37.427,42.015,40.491z"/>
		<path d="M28.29,21.775c8.858,4.022,12.752,8.647,14.459,11.821c0.1,0.186,0.293,0.298,0.5,0.298
			c0.027,0,0.053-0.003,0.082-0.006c0.236-0.035,0.424-0.215,0.473-0.446c0.752-3.646,0.836-7.897,0.258-12.633
			c-0.023-0.195-0.146-0.365-0.328-0.446c-2.295-1.045-4.838-1.599-7.35-1.599c-2.805,0-5.614,0.688-8.119,1.992
			c-0.19,0.102-0.311,0.301-0.305,0.519C27.966,21.491,28.093,21.685,28.29,21.775z"/>
		<path d="M18.784,35.637c-0.01,0.217,0.104,0.42,0.295,0.522c0.084,0.045,0.178,0.067,0.27,0.067
			c0.115,0,0.232-0.035,0.33-0.104c7.974-5.702,14.021-6.688,17.481-6.604c0.227,0.005,0.455-0.138,0.541-0.357
			c0.088-0.222,0.027-0.474-0.15-0.631c-2.784-2.479-6.426-4.681-10.825-6.548c-0.178-0.077-0.389-0.056-0.549,0.061
			C21.718,25.221,19.022,30.177,18.784,35.637z"/>
		<path d="M30.807,32.323c0.125-0.203,0.111-0.463-0.036-0.648c-0.146-0.188-0.396-0.26-0.623-0.188
			c-3.537,1.174-7.261,3.225-11.07,6.096c-0.158,0.117-0.242,0.311-0.223,0.504c0.521,5.453,3.465,10.264,8.075,13.201
			c0.093,0.061,0.199,0.09,0.306,0.09c0.006,0,0.01,0,0.016,0c0.313,0,0.564-0.254,0.564-0.566c0-0.064-0.011-0.125-0.029-0.184
			C26.874,41.024,28.923,35.374,30.807,32.323z"/>
		<path d="M44.531,51.04c-8.856-4.023-12.75-8.65-14.459-11.824c-0.113-0.209-0.348-0.322-0.58-0.293
			c-0.236,0.035-0.426,0.215-0.473,0.447c-0.752,3.648-0.838,7.898-0.259,12.633c0.023,0.197,0.146,0.367,0.326,0.447
			c2.297,1.045,4.838,1.598,7.351,1.598c2.807,0,5.614-0.688,8.12-1.99c0.191-0.102,0.312-0.303,0.307-0.52
			C44.855,51.321,44.728,51.128,44.531,51.04z"/>
		<path d="M12.647,26.567c0.625,0,1.133-0.508,1.133-1.133v-9.802c0-0.182,0.147-0.329,0.33-0.329h9.801
			c0.625,0,1.133-0.507,1.133-1.132s-0.508-1.132-1.133-1.132H14.11c-1.433,0-2.596,1.164-2.596,2.594v9.802
			C11.514,26.058,12.022,26.567,12.647,26.567z"/>
		<path d="M58.712,13.037h-9.803c-0.625,0-1.133,0.507-1.133,1.132s0.508,1.132,1.133,1.132h9.803
			c0.182,0,0.33,0.148,0.33,0.331v9.801c0,0.625,0.506,1.132,1.131,1.132s1.133-0.507,1.133-1.132v-9.801
			C61.306,14.201,60.142,13.037,58.712,13.037z"/>
		<path d="M60.173,46.247c-0.625,0-1.131,0.508-1.131,1.133v9.799c0,0.184-0.148,0.332-0.33,0.332h-9.801
			c-0.625,0-1.133,0.508-1.133,1.133s0.508,1.133,1.133,1.133h9.801c1.43,0,2.594-1.166,2.594-2.598v-9.801
			C61.306,46.755,60.798,46.247,60.173,46.247z"/>
		<path d="M23.911,57.51h-9.803c-0.183,0-0.328-0.148-0.328-0.332V47.38c0-0.625-0.508-1.133-1.133-1.133
			s-1.134,0.508-1.134,1.133v9.799c0,1.434,1.164,2.598,2.595,2.598h9.803c0.625,0,1.133-0.508,1.133-1.133
			S24.536,57.51,23.911,57.51z"/>
	</g>
</svg>