<?xml version="1.0" encoding="iso-8859-1"?>
<!DOCTYPE svg PUBLIC "-//W3C//DTD SVG 1.1//EN" "http://www.w3.org/Graphics/SVG/1.1/DTD/svg11.dtd">
<svg version="1.1" id="iso" xmlns="http://www.w3.org/2000/svg" xmlns:xlink="http://www.w3.org/1999/xlink" x="0px" y="0px"
	 width="956.756px" height="956.756px" viewBox="0 0 956.756 956.756" style="enable-background:new 0 0 956.756 956.756;"
	 xml:space="preserve">
<g>
	<path d="M936.756,193.215H20c-11.045,0-20,8.954-20,20v530.326c0,11.046,8.955,20,20,20h916.756c11.046,0,20-8.954,20-20V213.215
		C956.756,202.168,947.802,193.215,936.756,193.215z M180.019,655.372H85.77V299.199h94.249V655.372z M371.802,661.946
		c-44.933,0-96.44-16.438-134.797-50.96l53.699-64.658c25.206,20.273,56.988,34.521,83.29,34.521
		c28.494,0,40.549-9.315,40.549-25.206c0-16.986-18.083-22.466-48.221-34.521l-44.386-18.632
		c-38.356-15.343-71.782-47.672-71.782-99.18c0-60.823,54.796-110.688,132.606-110.688c40.549,0,85.481,15.343,118.358,47.672
		l-47.124,59.18c-24.11-16.986-44.934-25.754-71.234-25.754c-23.015,0-37.262,8.219-37.262,24.11
		c0,16.985,20.274,23.014,52.604,35.616l43.288,16.986c44.386,17.535,69.592,48.221,69.592,97.537
		C510.984,608.247,460.571,661.946,371.802,661.946z M718.111,661.946c-98.634,0-165.483-69.042-165.483-186.306
		c0-117.263,66.851-183.018,165.483-183.018c98.632,0,165.482,66.303,165.482,183.018
		C883.595,592.904,816.744,661.946,718.111,661.946z"/>
	<path d="M718.111,373.721c-42.741,0-69.044,37.261-69.044,101.92s26.303,105.208,69.043,105.208s69.043-40.549,69.043-105.208
		S760.852,373.721,718.111,373.721z"/>
</g>
</svg>
