<?xml version="1.0" standalone="no"?>
<!DOCTYPE svg PUBLIC "-//W3C//DTD SVG 20010904//EN"
 "http://www.w3.org/TR/2001/REC-SVG-20010904/DTD/svg10.dtd">
<svg version="1.0" xmlns="http://www.w3.org/2000/svg"
 width="826.000000pt" height="234.000000pt" viewBox="0 0 826.000000 234.000000"
 preserveAspectRatio="xMidYMid meet">
<metadata>
Created by potrace 1.13, written by Peter Selinger 2001-2015
</metadata>
<g transform="translate(0.000000,234.000000) scale(0.100000,-0.100000)"
fill="#000000" stroke="none">
<path d="M2308 2321 c-117 -38 -231 -132 -264 -216 -23 -62 -16 -160 15 -204
53 -75 211 -99 333 -52 153 59 260 213 229 330 -35 133 -161 190 -313 142z"/>
<path d="M1435 1596 c-117 -28 -214 -100 -283 -209 -40 -63 -97 -195 -89 -204
3 -2 22 0 44 6 152 43 235 -25 205 -166 -20 -98 -147 -319 -228 -397 -60 -58
-97 -47 -137 41 -37 83 -70 225 -112 478 -21 121 -46 243 -56 271 -53 140
-156 200 -277 160 -81 -27 -192 -113 -460 -358 l-43 -40 41 -54 c22 -30 44
-54 48 -54 4 0 34 18 67 40 33 22 70 40 83 40 30 0 64 -35 97 -101 40 -77 48
-104 141 -444 90 -329 129 -431 200 -514 128 -149 328 -91 584 168 211 213
432 522 520 730 33 76 43 90 90 124 60 42 91 46 120 17 31 -31 25 -97 -26
-280 -139 -503 -147 -642 -43 -755 59 -64 106 -79 231 -72 175 9 334 79 504
224 28 23 54 43 56 43 3 0 9 -12 12 -28 13 -49 72 -128 123 -160 63 -41 185
-72 279 -72 l74 0 -12 27 c-19 48 -22 326 -4 429 41 238 174 510 279 575 49
29 102 25 139 -11 l31 -31 -5 -107 c-4 -68 -15 -144 -31 -207 -75 -290 -57
-479 55 -579 66 -60 147 -86 292 -93 l109 -6 -6 24 c-73 267 16 615 227 896
85 113 158 154 217 123 69 -38 66 -159 -16 -505 -35 -150 -43 -301 -20 -380
21 -72 80 -137 140 -154 58 -16 188 -14 264 5 93 22 232 92 326 163 80 60 80
60 95 38 43 -64 118 -130 184 -162 109 -54 193 -68 371 -62 279 11 534 86 809
239 73 41 111 57 114 49 2 -7 25 -41 51 -74 121 -161 309 -236 556 -224 254
13 440 100 620 289 177 186 260 383 272 644 7 156 -9 248 -64 364 -40 84 -139
193 -208 227 -109 56 -242 76 -394 62 -260 -24 -461 -124 -645 -320 -180 -191
-265 -391 -266 -620 l0 -96 -77 -31 c-211 -82 -396 -124 -563 -126 -120 -1
-178 15 -224 63 -31 32 -28 35 29 45 79 13 241 69 326 110 131 65 204 119 320
235 85 86 113 121 144 184 34 69 39 89 43 165 8 192 -83 313 -269 357 -130 30
-342 14 -497 -39 -262 -90 -515 -316 -638 -571 -59 -121 -84 -225 -87 -354
l-2 -104 -35 -18 c-47 -26 -124 -25 -149 0 -45 45 -39 104 45 476 22 97 28
146 28 255 1 122 -1 140 -23 188 -30 66 -95 125 -158 143 -78 23 -215 16 -301
-14 -113 -39 -176 -82 -308 -210 l-121 -117 -6 67 c-3 38 -13 89 -22 114 -49
141 -196 203 -392 166 -165 -31 -279 -93 -409 -222 l-92 -91 -5 71 c-13 186
-135 323 -256 286 -22 -6 -63 -29 -93 -51 -53 -41 -386 -341 -387 -350 0 -3
21 -29 47 -59 l48 -54 69 41 c77 47 90 50 104 24 13 -24 -1 -170 -34 -367 -14
-83 -25 -160 -25 -171 0 -40 -160 -144 -220 -144 -68 0 -105 40 -116 124 -6
40 38 316 91 583 14 67 25 144 25 171 0 154 -95 262 -230 262 -69 0 -179 -68
-330 -204 l-74 -68 -18 72 c-29 119 -77 177 -170 205 -61 18 -163 18 -233 1z
m6284 -375 c45 -48 66 -130 65 -251 -1 -127 -19 -201 -79 -325 -80 -165 -180
-260 -301 -285 -68 -14 -112 -2 -152 45 -50 56 -66 122 -59 244 6 124 31 212
89 321 99 187 217 277 361 279 42 1 53 -3 76 -28z m-1559 -39 c13 -11 23 -33
27 -60 12 -89 -101 -247 -249 -349 -74 -51 -153 -94 -197 -108 l-24 -7 5 73
c6 89 32 154 104 265 88 134 180 203 270 204 25 0 50 -7 64 -18z"/>
</g>
</svg>
