<?xml version="1.0" standalone="no"?>
<!DOCTYPE svg PUBLIC "-//W3C//DTD SVG 20010904//EN"
 "http://www.w3.org/TR/2001/REC-SVG-20010904/DTD/svg10.dtd">
<svg version="1.0" xmlns="http://www.w3.org/2000/svg"
 width="1948.000000pt" height="300.000000pt" viewBox="0 0 1948.000000 300.000000"
 preserveAspectRatio="xMidYMid meet">
<metadata>
Created by potrace 1.13, written by Peter Selinger 2001-2015
</metadata>
<g transform="translate(0.000000,300.000000) scale(0.100000,-0.100000)"
fill="#000000" stroke="none">
<path d="M11200 2989 c-360 -44 -627 -260 -711 -576 -28 -103 -30 -289 -6
-383 25 -94 87 -215 150 -290 100 -118 219 -209 495 -376 359 -218 461 -303
529 -442 35 -70 38 -83 38 -161 0 -102 -22 -156 -91 -226 -89 -89 -221 -132
-376 -122 -162 10 -301 59 -441 156 -70 48 -222 196 -280 271 l-27 35 0 -305
0 -305 53 -36 c145 -101 346 -183 521 -214 102 -17 324 -20 412 -4 177 31 329
107 448 224 263 260 301 708 85 1027 -107 158 -234 263 -533 440 -294 175
-358 218 -442 302 -88 89 -117 147 -122 244 -5 96 14 146 79 207 85 80 192
115 350 115 220 0 413 -80 612 -254 42 -36 79 -66 82 -66 3 0 5 119 5 265 l0
265 -47 31 c-218 139 -528 210 -783 178z"/>
<path d="M17701 2963 c-7 -14 -1225 -2864 -1248 -2920 -4 -10 47 -13 235 -13
l240 0 64 152 c35 84 116 276 179 425 l114 273 599 -3 600 -2 190 -422 190
-423 239 0 c187 0 238 3 234 13 -3 6 -296 665 -652 1462 -356 798 -649 1456
-652 1463 -4 9 -46 12 -164 12 -141 0 -159 -2 -168 -17z m377 -1190 l210 -473
-408 0 -409 0 43 103 c24 56 112 270 196 474 85 205 155 372 156 370 1 -1 96
-215 212 -474z"/>
<path d="M4410 2953 c0 -5 264 -666 587 -1471 l586 -1463 65 3 64 3 457 1126
c252 620 461 1135 465 1145 5 13 147 -328 469 -1129 l461 -1148 65 3 65 3 588
1460 c323 803 588 1463 588 1468 0 4 -104 6 -231 5 l-232 -3 -381 -962 c-209
-530 -383 -963 -386 -963 -3 0 -180 435 -395 965 l-389 965 -212 0 -212 0
-190 -472 c-105 -260 -279 -695 -388 -965 -109 -271 -201 -493 -204 -493 -3 0
-178 434 -390 965 l-385 965 -232 0 c-128 0 -233 -3 -233 -7z"/>
<path d="M9350 1495 l0 -1465 230 0 230 0 0 1465 0 1465 -230 0 -230 0 0
-1465z"/>
<path d="M12510 2750 l0 -210 490 0 490 0 0 -1255 0 -1255 235 0 235 0 0 1255
0 1255 500 0 500 0 0 210 0 210 -1225 0 -1225 0 0 -210z"/>
<path d="M15520 1495 l0 -1465 230 0 230 0 0 1465 0 1465 -230 0 -230 0 0
-1465z"/>
<path d="M3797 1779 c-83 -115 -376 -341 -562 -434 -262 -130 -665 -222 -1078
-245 -94 -5 -341 -7 -547 -3 -330 5 -383 4 -439 -11 -152 -39 -196 -80 -670
-616 l-350 -395 77 -2 c881 -22 1187 -25 1432 -15 439 20 611 46 873 133 358
119 640 283 856 500 126 125 210 242 286 394 72 145 106 241 135 386 22 109
38 333 24 342 -5 3 -22 -12 -37 -34z"/>
</g>
</svg>
